<mxfile host="app.diagrams.net" agent="Mozilla/5.0 (X11; Linux x86_64) AppleWebKit/537.36 (KHTML, like Gecko) Chrome/120.0.0.0 Safari/537.36" version="24.8.9">
  <diagram name="Page-1" id="0AHSkNGNNsL4tWmei7Rm">
    <mxGraphModel dx="1364" dy="1859" grid="1" gridSize="10" guides="1" tooltips="1" connect="1" arrows="1" fold="1" page="1" pageScale="1" pageWidth="850" pageHeight="1100" math="0" shadow="0">
      <root>
        <mxCell id="0" />
        <mxCell id="1" parent="0" />
        <mxCell id="7sP4TCV4tNd0kzBTkfvf-3" value="" style="edgeStyle=orthogonalEdgeStyle;rounded=0;orthogonalLoop=1;jettySize=auto;html=1;" edge="1" parent="1" source="7sP4TCV4tNd0kzBTkfvf-1" target="7sP4TCV4tNd0kzBTkfvf-2">
          <mxGeometry relative="1" as="geometry" />
        </mxCell>
        <mxCell id="7sP4TCV4tNd0kzBTkfvf-8" value="" style="edgeStyle=orthogonalEdgeStyle;rounded=0;orthogonalLoop=1;jettySize=auto;html=1;" edge="1" parent="1" source="7sP4TCV4tNd0kzBTkfvf-1" target="7sP4TCV4tNd0kzBTkfvf-7">
          <mxGeometry relative="1" as="geometry" />
        </mxCell>
        <mxCell id="7sP4TCV4tNd0kzBTkfvf-14" value="" style="edgeStyle=orthogonalEdgeStyle;rounded=0;orthogonalLoop=1;jettySize=auto;html=1;" edge="1" parent="1" source="7sP4TCV4tNd0kzBTkfvf-1" target="7sP4TCV4tNd0kzBTkfvf-13">
          <mxGeometry relative="1" as="geometry" />
        </mxCell>
        <mxCell id="7sP4TCV4tNd0kzBTkfvf-1" value="&lt;h1&gt;Portable Codes&lt;/h1&gt;&lt;div&gt;&lt;br&gt;&lt;/div&gt;&lt;div&gt;The codes is independent from the system. You don&#39;t see any #ifdef directives in the codes.&lt;/div&gt;&lt;div&gt;&lt;br&gt;&lt;/div&gt;&lt;div&gt;Let the build tools to select the implmentation to compile.&lt;/div&gt;" style="rounded=0;whiteSpace=wrap;html=1;verticalAlign=top;" vertex="1" parent="1">
          <mxGeometry x="60" y="120" width="180" height="300" as="geometry" />
        </mxCell>
        <mxCell id="7sP4TCV4tNd0kzBTkfvf-2" value="&lt;h1&gt;System APIs&lt;/h1&gt;&lt;div&gt;Create the abstraction layer, header files, and seperate the implementation from it.&lt;/div&gt;" style="rounded=0;whiteSpace=wrap;html=1;align=center;verticalAlign=top;" vertex="1" parent="1">
          <mxGeometry x="320" y="65" width="440" height="410" as="geometry" />
        </mxCell>
        <mxCell id="7sP4TCV4tNd0kzBTkfvf-10" value="" style="edgeStyle=orthogonalEdgeStyle;rounded=0;orthogonalLoop=1;jettySize=auto;html=1;" edge="1" parent="1" source="7sP4TCV4tNd0kzBTkfvf-4" target="7sP4TCV4tNd0kzBTkfvf-9">
          <mxGeometry relative="1" as="geometry" />
        </mxCell>
        <mxCell id="7sP4TCV4tNd0kzBTkfvf-12" style="edgeStyle=orthogonalEdgeStyle;rounded=0;orthogonalLoop=1;jettySize=auto;html=1;" edge="1" parent="1" source="7sP4TCV4tNd0kzBTkfvf-4" target="7sP4TCV4tNd0kzBTkfvf-11">
          <mxGeometry relative="1" as="geometry" />
        </mxCell>
        <mxCell id="7sP4TCV4tNd0kzBTkfvf-4" value="File System" style="rounded=0;whiteSpace=wrap;html=1;" vertex="1" parent="1">
          <mxGeometry x="360" y="190" width="120" height="60" as="geometry" />
        </mxCell>
        <mxCell id="7sP4TCV4tNd0kzBTkfvf-5" value="Thread" style="rounded=0;whiteSpace=wrap;html=1;" vertex="1" parent="1">
          <mxGeometry x="360" y="260" width="120" height="60" as="geometry" />
        </mxCell>
        <mxCell id="7sP4TCV4tNd0kzBTkfvf-6" value="Loader" style="rounded=0;whiteSpace=wrap;html=1;" vertex="1" parent="1">
          <mxGeometry x="360" y="330" width="120" height="60" as="geometry" />
        </mxCell>
        <mxCell id="7sP4TCV4tNd0kzBTkfvf-7" value="&lt;h1&gt;Dynamic Libray&lt;/h1&gt;&lt;div&gt;Wrapper.h contains function pointers&lt;/div&gt;&lt;div&gt;Create the class to wrap the imported library if you are using C++.&lt;/div&gt;" style="whiteSpace=wrap;html=1;verticalAlign=top;rounded=0;" vertex="1" parent="1">
          <mxGeometry x="40" y="475" width="220" height="150" as="geometry" />
        </mxCell>
        <mxCell id="7sP4TCV4tNd0kzBTkfvf-9" value="Unix" style="rounded=0;whiteSpace=wrap;html=1;" vertex="1" parent="1">
          <mxGeometry x="580" y="170" width="120" height="60" as="geometry" />
        </mxCell>
        <mxCell id="7sP4TCV4tNd0kzBTkfvf-11" value="Windows" style="rounded=0;whiteSpace=wrap;html=1;" vertex="1" parent="1">
          <mxGeometry x="580" y="240" width="120" height="60" as="geometry" />
        </mxCell>
        <mxCell id="7sP4TCV4tNd0kzBTkfvf-13" value="&lt;h1&gt;platform.h&lt;/h1&gt;&lt;div&gt;include other system-specific headers or types for systems.&lt;/div&gt;" style="whiteSpace=wrap;html=1;verticalAlign=top;rounded=0;" vertex="1" parent="1">
          <mxGeometry x="70" y="-80" width="160" height="110" as="geometry" />
        </mxCell>
      </root>
    </mxGraphModel>
  </diagram>
</mxfile>
